<svg id="Group_10803" data-name="Group 10803" xmlns="http://www.w3.org/2000/svg" width="20.435" height="20.898" viewBox="0 0 20.435 20.898">
  <path id="Path_37012" data-name="Path 37012" d="M119.639,258.716a.474.474,0,0,0-.474-.474h-1.655a.474.474,0,0,0-.474.474v1.655a.474.474,0,0,0,.474.474h1.655a.474.474,0,0,0,.474-.474v-1.655Z" transform="translate(-112.256 -247.186)" fill="#186bac"/>
  <path id="Path_37013" data-name="Path 37013" d="M216.273,258.716a.474.474,0,0,0-.474-.474h-1.655a.474.474,0,0,0-.474.474v1.655a.474.474,0,0,0,.474.474H215.8a.474.474,0,0,0,.474-.474Z" transform="translate(-204.754 -247.186)" fill="#186bac"/>
  <path id="Path_37014" data-name="Path 37014" d="M312.9,258.716a.474.474,0,0,0-.474-.474h-1.655a.474.474,0,0,0-.474.474v1.655a.474.474,0,0,0,.474.474h1.655a.474.474,0,0,0,.474-.474Z" transform="translate(-297.245 -247.186)" fill="#186bac"/>
  <path id="Path_37015" data-name="Path 37015" d="M119.639,355.349a.474.474,0,0,0-.474-.474h-1.655a.474.474,0,0,0-.474.474V357a.474.474,0,0,0,.474.474h1.655a.474.474,0,0,0,.474-.474v-1.655Z" transform="translate(-112.256 -339.682)" fill="#186bac"/>
  <path id="Path_37016" data-name="Path 37016" d="M216.273,355.349a.474.474,0,0,0-.474-.474h-1.655a.474.474,0,0,0-.474.474V357a.474.474,0,0,0,.474.474H215.8a.474.474,0,0,0,.474-.474Z" transform="translate(-204.754 -339.682)" fill="#186bac"/>
  <path id="Path_37017" data-name="Path 37017" d="M312.9,355.349a.474.474,0,0,0-.474-.474h-1.656a.474.474,0,0,0-.474.474V357a.474.474,0,0,0,.474.474h1.656A.474.474,0,0,0,312.9,357v-1.655Z" transform="translate(-297.245 -339.682)" fill="#186bac"/>
  <path id="Path_37018" data-name="Path 37018" d="M24.027,54.151v2.528a2.065,2.065,0,0,1-2.069,2.063H20.652a2.075,2.075,0,0,1-2.082-2.063V54.142H12.687v2.537A2.075,2.075,0,0,1,10.6,58.743H9.3A2.065,2.065,0,0,1,7.23,56.679V54.151a1.882,1.882,0,0,0-1.819,1.872V70.838a1.883,1.883,0,0,0,1.873,1.884H23.973a1.885,1.885,0,0,0,1.873-1.884V56.023A1.882,1.882,0,0,0,24.027,54.151Zm-.606,15.765a.81.81,0,0,1-.81.81h-14a.81.81,0,0,1-.81-.81V62.263a.81.81,0,0,1,.81-.81h14a.81.81,0,0,1,.81.81v7.653Z" transform="translate(-5.411 -51.824)" fill="#186bac"/>
  <path id="Path_37019" data-name="Path 37019" d="M80.26,5.563h1.291a.709.709,0,0,0,.71-.709V.71a.71.71,0,0,0-.71-.71H80.26a.71.71,0,0,0-.71.71V4.854A.709.709,0,0,0,80.26,5.563Z" transform="translate(-76.376)" fill="#186bac"/>
  <path id="Path_37020" data-name="Path 37020" d="M345.168,5.563h1.291a.709.709,0,0,0,.709-.709V.71a.709.709,0,0,0-.709-.71h-1.291a.71.71,0,0,0-.71.71V4.854A.709.709,0,0,0,345.168,5.563Z" transform="translate(-329.943)" fill="#186bac"/>
</svg>
