<svg xmlns="http://www.w3.org/2000/svg" width="39.232" height="39.233" viewBox="0 0 39.232 39.233"><path d="M39.111,17.438a1.278,1.278,0,0,0-1.261-.966,4.331,4.331,0,0,1-2.965-7.538A1.09,1.09,0,0,0,35,7.454,19.42,19.42,0,0,0,31.9,4.315a1.092,1.092,0,0,0-1.491.121,4.521,4.521,0,0,1-4.893,1.1,4.357,4.357,0,0,1-2.649-4.259A1.089,1.089,0,0,0,21.9.13,19.576,19.576,0,0,0,17.487.118a1.092,1.092,0,0,0-.971,1.123A4.365,4.365,0,0,1,13.83,5.426,4.533,4.533,0,0,1,8.974,4.32,1.093,1.093,0,0,0,7.494,4.2,19.5,19.5,0,0,0,4.32,7.334a1.091,1.091,0,0,0,.117,1.49,4.347,4.347,0,0,1,1.1,4.895A4.534,4.534,0,0,1,1.266,16.37a1.067,1.067,0,0,0-1.133.964,19.664,19.664,0,0,0-.008,4.46,1.3,1.3,0,0,0,1.286.965,4.3,4.3,0,0,1,4.037,2.688A4.364,4.364,0,0,1,4.35,30.3a1.089,1.089,0,0,0-.119,1.478,19.489,19.489,0,0,0,3.1,3.14A1.091,1.091,0,0,0,8.827,34.8a4.514,4.514,0,0,1,4.89-1.1,4.351,4.351,0,0,1,2.654,4.257,1.089,1.089,0,0,0,.962,1.146,19.532,19.532,0,0,0,4.413.012,1.092,1.092,0,0,0,.971-1.123A4.36,4.36,0,0,1,25.4,33.806a4.528,4.528,0,0,1,4.858,1.1,1.1,1.1,0,0,0,1.48.124A19.526,19.526,0,0,0,34.914,31.9a1.09,1.09,0,0,0-.117-1.491,4.346,4.346,0,0,1-1.1-4.893,4.391,4.391,0,0,1,4.013-2.659l.243.006A1.092,1.092,0,0,0,39.1,21.9,19.578,19.578,0,0,0,39.111,17.438ZM19.618,30.925a11.309,11.309,0,1,1,9.709-5.51l-4.952-4.952a6.937,6.937,0,0,0-8.213-9.4.785.785,0,0,0-.543.547.766.766,0,0,0,.218.75s2.445,2.464,3.263,3.281a.507.507,0,0,1,.073.364l-.008.054a15.635,15.635,0,0,1-.373,2.394l-.052.05-.054.056a15.411,15.411,0,0,1-2.43.378v0l-.041.01-.039,0a.523.523,0,0,1-.376-.159c-.851-.851-3.2-3.183-3.2-3.183a.8.8,0,0,0-.571-.254.776.776,0,0,0-.731.591,6.938,6.938,0,0,0,9.4,8.2L25.7,29.146A11.252,11.252,0,0,1,19.618,30.925Z" transform="translate(-0.002 0.001)" fill="#ffffff"/></svg>