<svg xmlns="http://www.w3.org/2000/svg" width="40.022" height="44.976" viewBox="0 0 40.022 44.976">
  <defs>
    <style>
      .cls-1 {
        fill: #fff;
      }
    </style>
  </defs>
  <g id="Artwork_444" data-name="Artwork 444" transform="translate(0)">
    <g id="Group_10450" data-name="Group 10450">
      <path id="Path_36953" data-name="Path 36953" class="cls-1" d="M17.778,11.6a8.179,8.179,0,0,1,7.566,4.994,7.95,7.95,0,0,1-1.829,8.782,8.278,8.278,0,0,1-8.953,1.665A8.025,8.025,0,0,1,17.778,11.6ZM13.193,24.276h.124a2.977,2.977,0,0,1,2.726-1.706h3.593a2.872,2.872,0,0,1,1.982.853l.743.975A6.389,6.389,0,0,0,24.1,17.451a6.724,6.724,0,0,0-12.762.244,6.391,6.391,0,0,0,1.858,6.582Z" transform="translate(2.294 3.27)"/>
      <path id="Path_36954" data-name="Path 36954" class="cls-1" d="M16.989,37.744a4.023,4.023,0,1,1,4.089-4.022,4.179,4.179,0,0,1-4.089,4.022Z" transform="translate(3.083 7.231)"/>
      <path id="Path_36955" data-name="Path 36955" class="cls-1" d="M29.789,15.544a4.023,4.023,0,1,1,4.089-4.022A4.056,4.056,0,0,1,29.789,15.544Z" transform="translate(6.142 2.373)"/>
      <path id="Path_36956" data-name="Path 36956" class="cls-1" d="M4.089,7.4a4.023,4.023,0,1,1,0,8.044,4.023,4.023,0,1,1,0-8.044Zm.039,1.588Z" transform="translate(0 2.351)"/>
      <path id="Path_36957" data-name="Path 36957" class="cls-1" d="M29.788,30.344A4.023,4.023,0,1,1,33.877,26.2a3.987,3.987,0,0,1-1.153,2.923A4.122,4.122,0,0,1,29.788,30.344Z" transform="translate(6.143 5.612)"/>
      <path id="Path_36958" data-name="Path 36958" class="cls-1" d="M4.064,30.344A4.023,4.023,0,1,1,4.313,22.3a4.023,4.023,0,1,1-.249,8.041Z" transform="translate(0.024 5.612)"/>
      <path id="Path_36959" data-name="Path 36959" class="cls-1" d="M26.389,13.619l-3.345,1.95L22.3,14.35l3.345-1.95Z" transform="translate(5.33 3.445)"/>
      <path id="Path_36960" data-name="Path 36960" class="cls-1" d="M6.7,13.619,7.443,12.4l3.345,1.828-.743,1.219Z" transform="translate(1.601 3.445)"/>
      <path id="Path_36961" data-name="Path 36961" class="cls-1" d="M7.443,24.469,6.7,23.25l3.345-1.95.743,1.219Z" transform="translate(1.601 5.393)"/>
      <path id="Path_36962" data-name="Path 36962" class="cls-1" d="M25.645,24.469,22.3,22.519l.743-1.219,3.345,1.95Z" transform="translate(5.33 5.393)"/>
      <path id="Path_36963" data-name="Path 36963" class="cls-1" d="M16.963,7.6v3.778H15.6V7.6Z" transform="translate(3.728 2.395)"/>
      <path id="Path_36964" data-name="Path 36964" class="cls-1" d="M15.6,29.378V25.6h1.363v3.778Z" transform="translate(3.728 6.334)"/>
      <path id="Path_36965" data-name="Path 36965" class="cls-1" d="M6.791,7.972,5.8,6.875,7.039,5.9,7.906,7Z" transform="translate(1.386 2.023)"/>
      <path id="Path_36966" data-name="Path 36966" class="cls-1" d="M26.906,6.875l-.991,1.1L24.8,7l.867-1.1Z" transform="translate(5.927 2.023)"/>
      <path id="Path_36967" data-name="Path 36967" class="cls-1" d="M.9,20.1H2.263l.248,1.463-1.363.366Z" transform="translate(0.215 5.13)"/>
      <path id="Path_36968" data-name="Path 36968" class="cls-1" d="M30.1,21.463,30.348,20h1.487l-.248,1.585Z" transform="translate(7.194 5.108)"/>
      <path id="Path_36969" data-name="Path 36969" class="cls-1" d="M31.735,16.485l-1.487.244L30,15.266l1.363-.366Z" transform="translate(7.17 3.992)"/>
      <path id="Path_36970" data-name="Path 36970" class="cls-1" d="M2.511,15.122l-.248,1.463H.9L1.148,15Z" transform="translate(0.215 4.014)"/>
      <path id="Path_36971" data-name="Path 36971" class="cls-1" d="M7.906,29.675l-.867,1.1L5.8,29.8l.991-1.1Z" transform="translate(1.386 7.012)"/>
      <path id="Path_36972" data-name="Path 36972" class="cls-1" d="M11.687,3.5l.5,1.341-1.363.488L10.2,3.988Z" transform="translate(2.438 1.497)"/>
      <path id="Path_36973" data-name="Path 36973" class="cls-1" d="M25.667,30.772l-.867-1.1,1.115-.975.991,1.1Z" transform="translate(5.927 7.012)"/>
      <path id="Path_36974" data-name="Path 36974" class="cls-1" d="M22.7,30.931l1.363-.731.743,1.219-1.363.853Z" transform="translate(5.425 7.341)"/>
      <path id="Path_36975" data-name="Path 36975" class="cls-1" d="M21,33.128l-.5-1.341,1.363-.488.619,1.341Z" transform="translate(4.9 7.581)"/>
      <path id="Path_36976" data-name="Path 36976" class="cls-1" d="M7.9,5.231,9.263,4.5l.62,1.219L8.643,6.45Z" transform="translate(1.888 1.716)"/>
      <path id="Path_36977" data-name="Path 36977" class="cls-1" d="M24.063,6.45,22.7,5.719l.62-1.219,1.363.853Z" transform="translate(5.425 1.716)"/>
      <path id="Path_36978" data-name="Path 36978" class="cls-1" d="M20.5,4.841,21,3.5l1.487.609-.619,1.219Z" transform="translate(4.9 1.497)"/>
      <path id="Path_36979" data-name="Path 36979" class="cls-1" d="M7.9,31.319,8.643,30.1l1.363.731-.62,1.219Z" transform="translate(1.888 7.319)"/>
      <path id="Path_36980" data-name="Path 36980" class="cls-1" d="M12.182,31.809l-.5,1.341L10.2,32.541l.62-1.341Z" transform="translate(2.438 7.56)"/>
      <path id="Path_36981" data-name="Path 36981" class="cls-1" d="M31.763,18.963H30.4V17.5h1.363Z" transform="translate(7.266 4.561)"/>
      <path id="Path_36982" data-name="Path 36982" class="cls-1" d="M2.163,19.085H.8V17.5H2.163Z" transform="translate(0.191 4.561)"/>
      <path id="Path_36983" data-name="Path 36983" class="cls-1" d="M16.721,14.5A3.169,3.169,0,1,1,13.5,17.669,3.2,3.2,0,0,1,16.721,14.5Zm-1.735,3.047a1.735,1.735,0,1,0,1.735-1.706,1.721,1.721,0,0,0-1.735,1.706Z" transform="translate(3.227 3.905)"/>
      <path id="Path_36984" data-name="Path 36984" class="cls-1" d="M4.089,7.4a4.023,4.023,0,1,1,0,8.044,4.023,4.023,0,1,1,0-8.044Zm.039,1.588Z" transform="translate(16.107 -7.4)"/>
    </g>
  </g>
</svg>
