<svg xmlns="http://www.w3.org/2000/svg" width="38.564" height="36.11" viewBox="0 0 38.564 36.11"><path d="M28.847,48.9V17.416a1.13,1.13,0,0,0-1.13-1.13H1.13A1.13,1.13,0,0,0,0,17.416V46.64a5.655,5.655,0,0,0,5.649,5.649H29.98A5.62,5.62,0,0,1,28.847,48.9ZM6.026,37.978H9.641a1.13,1.13,0,0,1,0,2.26H6.026a1.13,1.13,0,0,1,0-2.26ZM4.9,34.287a1.13,1.13,0,0,1,1.13-1.13H9.641a1.13,1.13,0,1,1,0,2.26H6.026A1.13,1.13,0,0,1,4.9,34.287Zm18,12.578H6.026a1.13,1.13,0,0,1,0-2.26H22.9a1.13,1.13,0,0,1,0,2.26Zm1.13-5.95a1.13,1.13,0,0,1-1.13,1.13H14.461a1.13,1.13,0,0,1-1.13-1.13V32.48a1.13,1.13,0,0,1,1.13-1.13H22.9a1.13,1.13,0,0,1,1.13,1.13ZM22.9,28.789H6.026a1.13,1.13,0,1,1,0-2.26H22.9a1.13,1.13,0,1,1,0,2.26Zm0-4.82H6.026a1.13,1.13,0,0,1,0-2.26H22.9a1.13,1.13,0,0,1,0,2.26Z" transform="translate(0 -16.286)" fill="#113f72"/><path d="M207,246.286h6.176v6.176H207Z" transform="translate(-191.409 -228.963)" fill="#113f72"/><path d="M419.319,131.286h-6.327c0,25.6,0,15.262.007,15.262a3.728,3.728,0,0,0,7.446-.083c.006,0,0,10.083,0-14.049A1.13,1.13,0,0,0,419.319,131.286Z" transform="translate(-381.885 -113.934)" fill="#113f72"/></svg>