<svg xmlns="http://www.w3.org/2000/svg" width="33.131" height="38.907" viewBox="0 0 33.131 38.907"><g transform="translate(0)"><path d="M127.854,158.457a7.413,7.413,0,1,0,7.413,7.413A7.421,7.421,0,0,0,127.854,158.457Zm4.4,6.017-5.311,5.311a1.141,1.141,0,0,1-1.614,0l-2.029-2.029a1.141,1.141,0,0,1,1.614-1.614l1.222,1.222,4.5-4.5a1.141,1.141,0,0,1,1.614,1.614Zm0,0" transform="translate(-111.289 -146.416)" fill="#113f72"/><path d="M33.093,10.555v-.03c-.017-.374-.028-.769-.035-1.209a4.124,4.124,0,0,0-3.883-4.04A16,16,0,0,1,18.283.686L18.258.662a2.49,2.49,0,0,0-3.384,0l-.025.024A16,16,0,0,1,3.958,5.277,4.123,4.123,0,0,0,.076,9.316c-.007.437-.018.832-.035,1.209l0,.07c-.087,4.562-.2,10.238,1.7,15.391a19.593,19.593,0,0,0,4.7,7.321,24.588,24.588,0,0,0,9.2,5.441,2.848,2.848,0,0,0,.377.1,2.784,2.784,0,0,0,1.095,0,2.857,2.857,0,0,0,.379-.1A24.6,24.6,0,0,0,26.681,33.3a19.62,19.62,0,0,0,4.7-7.323C33.287,20.813,33.18,15.126,33.093,10.555ZM16.566,29.149a9.7,9.7,0,1,1,9.7-9.7A9.707,9.707,0,0,1,16.566,29.149Zm0,0" transform="translate(0 0.001)" fill="#113f72"/></g></svg>