<svg xmlns="http://www.w3.org/2000/svg" width="38.58" height="38.58" viewBox="0 0 38.58 38.58"><path d="M38.46,17.148a1.256,1.256,0,0,0-1.24-.95A4.259,4.259,0,0,1,34.3,8.785a1.072,1.072,0,0,0,.118-1.455,19.1,19.1,0,0,0-3.056-3.086,1.074,1.074,0,0,0-1.466.119,4.446,4.446,0,0,1-4.811,1.081,4.285,4.285,0,0,1-2.605-4.188A1.07,1.07,0,0,0,21.537.128,19.25,19.25,0,0,0,17.2.116a1.074,1.074,0,0,0-.955,1.1A4.292,4.292,0,0,1,13.6,5.336,4.458,4.458,0,0,1,8.825,4.248a1.075,1.075,0,0,0-1.456-.122A19.176,19.176,0,0,0,4.249,7.212a1.073,1.073,0,0,0,.115,1.466,4.275,4.275,0,0,1,1.079,4.813,4.459,4.459,0,0,1-4.2,2.607,1.05,1.05,0,0,0-1.115.948,19.337,19.337,0,0,0-.008,4.386,1.277,1.277,0,0,0,1.265.949,4.231,4.231,0,0,1,3.969,2.643,4.292,4.292,0,0,1-1.079,4.77,1.071,1.071,0,0,0-.117,1.453,19.164,19.164,0,0,0,3.051,3.087,1.073,1.073,0,0,0,1.468-.116,4.439,4.439,0,0,1,4.809-1.081,4.279,4.279,0,0,1,2.61,4.187,1.071,1.071,0,0,0,.946,1.127,19.208,19.208,0,0,0,4.34.012,1.073,1.073,0,0,0,.955-1.1,4.288,4.288,0,0,1,2.64-4.114,4.452,4.452,0,0,1,4.777,1.087,1.077,1.077,0,0,0,1.456.122,19.2,19.2,0,0,0,3.121-3.085,1.071,1.071,0,0,0-.115-1.466,4.274,4.274,0,0,1-1.081-4.812,4.318,4.318,0,0,1,3.946-2.615l.239.006a1.074,1.074,0,0,0,1.129-.946A19.253,19.253,0,0,0,38.46,17.148ZM19.291,30.41a11.121,11.121,0,1,1,9.548-5.419l-4.87-4.87a6.822,6.822,0,0,0-8.077-9.24.772.772,0,0,0-.534.538.754.754,0,0,0,.214.737s2.4,2.423,3.208,3.227a.5.5,0,0,1,.072.358l-.008.053a15.375,15.375,0,0,1-.366,2.354l-.051.049-.053.055a15.155,15.155,0,0,1-2.389.371v0l-.04.01-.038,0a.514.514,0,0,1-.37-.157c-.837-.837-3.147-3.131-3.147-3.131a.785.785,0,0,0-.561-.25.763.763,0,0,0-.719.581,6.822,6.822,0,0,0,9.243,8.064l4.922,4.922A11.065,11.065,0,0,1,19.291,30.41Z" transform="translate(-0.002 0.001)" fill="#113f72"/></svg>