<svg xmlns="http://www.w3.org/2000/svg" width="47.171" height="41.729" viewBox="0 0 47.171 41.729"><g transform="translate(0 0)"><g transform="translate(0 12.246)"><g transform="translate(0 0)"><path d="M40.822,182.418a4.081,4.081,0,0,1-3.364-1.769l-2-2.906a13.615,13.615,0,0,1-25.414-5.3H11.34a1.361,1.361,0,0,0,1.121-2.132l-1.984-2.885-3.006-4.372a1.361,1.361,0,0,0-2.243,0L.24,170.308a1.361,1.361,0,0,0,1.121,2.132h1.4a20.865,20.865,0,0,0,35.574,13.393,21,21,0,0,0,2.772-3.425C41.015,182.414,40.919,182.418,40.822,182.418Z" transform="translate(0 -162.461)" fill="#113f72"/></g></g><g transform="translate(19.115 12.246)"><path d="M212.981,169.72h-2.073a.713.713,0,0,1-.713-.713v-1.037a.713.713,0,0,1,.713-.713h2.073a.713.713,0,0,1,.713.713,1.361,1.361,0,1,0,2.721,0,3.438,3.438,0,0,0-3.11-3.418v-.728a1.361,1.361,0,1,0-2.721,0v.728a3.439,3.439,0,0,0-3.11,3.418v1.037a3.438,3.438,0,0,0,3.434,3.434h2.073a.713.713,0,0,1,.713.713v1.037a.714.714,0,0,1-.713.713h-2.073a.713.713,0,0,1-.713-.713,1.361,1.361,0,0,0-2.721,0,3.439,3.439,0,0,0,3.11,3.418v.728a1.361,1.361,0,1,0,2.721,0v-.728a3.439,3.439,0,0,0,3.11-3.418v-1.037A3.438,3.438,0,0,0,212.981,169.72Z" transform="translate(-207.473 -162.463)" fill="#113f72"/></g><g transform="translate(6.061 0)"><path d="M106.738,49.77a1.361,1.361,0,0,0-1.2-.727h-1.4A20.865,20.865,0,0,0,68.556,35.65a21.008,21.008,0,0,0-2.772,3.425c.1-.007.192-.011.289-.011a4.081,4.081,0,0,1,3.364,1.769l2,2.906a13.615,13.615,0,0,1,25.414,5.3H95.555a1.361,1.361,0,0,0-1.121,2.132l1.984,2.885,3.006,4.372a1.361,1.361,0,0,0,2.243,0l1.8-2.62,3.188-4.637A1.361,1.361,0,0,0,106.738,49.77Z" transform="translate(-65.784 -29.539)" fill="#113f72"/></g></g></svg>